<svg width="80" height="20" viewBox="0 0 80 20" fill="none" xmlns="http://www.w3.org/2000/svg">
<g clip-path="url(#clip0_1_2346)">
<path d="M20.0738 20C19.8713 20 19.6964 19.9259 19.5492 19.7778C19.4019 19.6296 19.3282 19.4537 19.3282 19.25V1.30555C19.3282 1.10185 19.4019 0.92592 19.5492 0.777772C19.6964 0.629624 19.8713 0.55555 20.0738 0.55555H25.7073C25.9098 0.55555 26.0847 0.629624 26.2319 0.777772C26.3792 0.92592 26.4529 1.10185 26.4529 1.30555V19.25C26.4529 19.4537 26.3792 19.6296 26.2319 19.7778C26.0847 19.9259 25.9098 20 25.7073 20H20.0738Z" fill="#232321"/>
<path d="M0.745599 19.7222C0.543091 19.7222 0.368197 19.6481 0.220918 19.5C0.0736394 19.3518 0 19.1759 0 18.9722V1.02777C0 0.824071 0.0736394 0.648145 0.220918 0.499997C0.368197 0.351849 0.543091 0.277775 0.745599 0.277775H6.02002C6.22253 0.277775 6.39742 0.351849 6.5447 0.499997C6.69198 0.648145 6.76562 0.824071 6.76562 1.02777V6.52777L9.88609 0.888886C9.97814 0.740738 10.1101 0.601849 10.288 0.472219C10.4629 0.34259 10.6961 0.277775 10.9907 0.277775H17.0935C17.2592 0.277775 17.4004 0.339503 17.5231 0.456787C17.6428 0.577158 17.7011 0.719133 17.7011 0.888886C17.7011 0.999997 17.6735 1.10185 17.6182 1.19444L12.6476 9.58333L18.0877 18.8056C18.1429 18.8796 18.1705 18.9815 18.1705 19.1111C18.1705 19.2778 18.1092 19.4228 17.9926 19.5432C17.8729 19.6636 17.7318 19.7222 17.563 19.7222H11.2668C10.8986 19.7222 10.6256 19.6358 10.4537 19.4568C10.2788 19.2809 10.1714 19.1574 10.1346 19.0833L6.76562 13.0278V18.9722C6.76562 19.1759 6.69198 19.3518 6.5447 19.5C6.39742 19.6481 6.22253 19.7222 6.02002 19.7222H0.745599Z" fill="#232321"/>
<path d="M36.7645 20C34.9972 20 33.4323 19.7407 32.07 19.2222C30.7077 18.7037 29.6246 17.8889 28.8237 16.7778C28.0229 15.6667 27.5841 14.2315 27.5136 12.4722C27.4952 11.713 27.486 10.8981 27.486 10.0278C27.486 9.15741 27.4952 8.32407 27.5136 7.52778C27.5872 5.80556 28.0321 4.38889 28.8514 3.27778C29.6706 2.16667 30.766 1.34259 32.1375 0.805556C33.5091 0.268518 35.0524 0 36.7645 0C37.9428 0 39.078 0.135802 40.1765 0.401235C41.2719 0.669753 42.2599 1.09259 43.1435 1.66667C44.0272 2.24074 44.7299 2.9784 45.2545 3.87346C45.7792 4.7716 46.0492 5.85185 46.0707 7.11111C46.0707 7.27778 46.0093 7.42284 45.8927 7.54321C45.7731 7.66358 45.6319 7.72222 45.4632 7.72222H39.8298C39.5352 7.72222 39.3174 7.66358 39.1793 7.54321C39.0412 7.42284 38.9185 7.21605 38.808 6.91667C38.6055 6.32407 38.3294 5.92593 37.9796 5.72222C37.6298 5.51852 37.2156 5.41667 36.7369 5.41667C36.1294 5.41667 35.6446 5.58025 35.2856 5.90432C34.9266 6.22839 34.7272 6.8179 34.6903 7.66667C34.6351 9.18519 34.6351 10.7407 34.6903 12.3333C34.7272 13.1852 34.9266 13.7747 35.2856 14.0957C35.6446 14.4198 36.1294 14.5833 36.7369 14.5833C37.2156 14.5833 37.6329 14.4722 37.9918 14.25C38.3508 14.0278 38.6209 13.6389 38.808 13.0833C38.9001 12.7685 39.0197 12.5556 39.167 12.4444C39.3143 12.3333 39.5352 12.2778 39.8298 12.2778H45.4632C45.6289 12.2778 45.77 12.3395 45.8927 12.4568C46.0124 12.5772 46.0707 12.7191 46.0707 12.8889C46.0523 14.1481 45.7823 15.2284 45.2545 16.1265C44.7299 17.0247 44.0272 17.7623 43.1435 18.3333C42.2599 18.9074 41.2688 19.3302 40.1765 19.5957C39.078 19.8642 37.9428 20 36.7645 20Z" fill="#232321"/>
<path d="M62.3848 18.8056L56.9447 9.58333L61.9153 1.19444C61.9706 1.10185 61.9982 0.999997 61.9982 0.888886C61.9982 0.722219 61.9399 0.580244 61.8202 0.459874C61.7006 0.339503 61.5564 0.277775 61.3907 0.277775H55.2878C54.9932 0.277775 54.76 0.34259 54.5852 0.472219C54.4103 0.601849 54.2753 0.740738 54.1832 0.888886L51.4217 5.87963L51.0627 6.52777V1.02777C51.0627 0.824071 50.9891 0.648145 50.8418 0.499997C50.6945 0.351849 50.5197 0.277775 50.3171 0.277775H45.0427C44.8402 0.277775 44.6653 0.351849 44.518 0.499997C44.4996 0.521602 44.4812 0.54012 44.4628 0.561725C44.4444 0.58333 44.4291 0.604935 44.4168 0.62654C44.4014 0.648145 44.3892 0.672837 44.3769 0.694441C44.3646 0.719133 44.3554 0.740738 44.3462 0.765429C45.2974 1.42284 46.0767 2.25617 46.6566 3.25C47.2857 4.33024 47.617 5.62345 47.6385 7.09259C47.6385 7.60185 47.4483 8.06481 47.1016 8.41666C46.7518 8.76543 46.2915 8.95679 45.8037 8.95679H44.2971V11.0432H45.8037C46.2915 11.0432 46.7518 11.2346 47.0985 11.5833C47.4483 11.9383 47.6385 12.4012 47.6385 12.8889C47.617 14.3765 47.2857 15.6697 46.6566 16.75C46.0767 17.7438 45.2974 18.5772 44.3462 19.2346C44.3554 19.2593 44.3646 19.2839 44.3769 19.3055C44.4014 19.3518 44.4291 19.3981 44.4628 19.4383C44.4812 19.4599 44.4996 19.4784 44.518 19.5C44.6653 19.6481 44.8402 19.7222 45.0427 19.7222H50.3171C50.5197 19.7222 50.6945 19.6481 50.8418 19.5C50.9891 19.3518 51.0627 19.1759 51.0627 18.9722V13.0278L51.4217 13.6728L54.4317 19.0833C54.4686 19.1574 54.576 19.2839 54.7508 19.4599C54.9257 19.6358 55.1957 19.7222 55.5639 19.7222H61.8601C62.0258 19.7222 62.17 19.6636 62.2897 19.5432C62.4093 19.4228 62.4676 19.2778 62.4676 19.1111C62.4676 18.9815 62.44 18.8796 62.3848 18.8056Z" fill="#232321"/>
<path d="M70.8318 20C68.7883 20 67.1038 19.7222 65.7783 19.1667C64.4528 18.6111 63.4587 17.8796 62.7959 16.9722C62.1332 16.0648 61.7834 15.1019 61.7466 14.0833C61.7466 13.9167 61.8049 13.7747 61.9245 13.6512C62.0442 13.5309 62.1854 13.4722 62.351 13.4722H67.5978C67.8924 13.4722 68.1164 13.5123 68.2759 13.5957C68.4324 13.679 68.6012 13.7963 68.7883 13.9414C68.9724 14.071 69.1596 14.1883 69.3529 14.287C69.5462 14.3889 69.7671 14.463 70.0157 14.5093C70.2642 14.5556 70.5342 14.5802 70.8318 14.5802C71.4578 14.5802 71.9579 14.5093 72.3353 14.3704C72.7127 14.2315 72.9029 14.0432 72.9029 13.8025C72.9029 13.5802 72.7956 13.3951 72.5838 13.2469C72.3721 13.0988 72.007 12.966 71.4915 12.8457C70.9761 12.7253 70.2581 12.608 69.3376 12.5C67.8832 12.2963 66.6221 11.9537 65.5543 11.4722C64.4866 10.9907 63.6612 10.3302 63.0844 9.48457C62.5045 8.64198 62.216 7.60802 62.216 6.3858C62.216 5.12654 62.5689 4.01543 63.2777 3.05247C63.9864 2.08951 64.9714 1.33951 66.2324 0.802469C67.4935 0.268518 68.9632 0 70.6385 0C72.0193 0 73.2435 0.179012 74.3113 0.540123C75.3791 0.901235 76.2812 1.37346 77.0175 1.95679C77.7539 2.54012 78.3154 3.16667 78.7021 3.83333C79.0887 4.5 79.2912 5.13889 79.3096 5.75C79.3096 5.91667 79.2482 6.06173 79.1316 6.1821C79.0119 6.30247 78.8769 6.36111 78.7297 6.36111H73.2067C72.949 6.36111 72.7403 6.32407 72.5869 6.25C72.4304 6.17593 72.2678 6.06481 72.1021 5.91667C72.0101 5.82407 71.8382 5.71914 71.5897 5.59568C71.3412 5.47531 71.0251 5.41667 70.6355 5.41667C70.1752 5.41667 69.8377 5.48765 69.6291 5.62654C69.4173 5.76543 69.31 5.95679 69.31 6.19444C69.31 6.36111 69.3928 6.51852 69.5585 6.66667C69.7242 6.81481 70.0279 6.94444 70.4698 7.05556C70.9116 7.16667 71.5468 7.27778 72.3752 7.38889C74.2162 7.61111 75.692 7.96914 76.8089 8.45679C77.9227 8.94753 78.7327 9.60185 79.239 10.4167C79.7453 11.2315 79.9999 12.2407 79.9999 13.4444C79.9999 14.7963 79.598 15.963 78.7972 16.9444C77.9963 17.9259 76.904 18.679 75.5233 19.2068C74.1425 19.7346 72.5808 20 70.8318 20Z" fill="#232321"/>
</g>
<defs>
<clipPath id="clip0_1_2346">
<rect width="80" height="20" fill="white"/>
</clipPath>
</defs>
</svg>
